<svg width="591" height="591" viewBox="0 0 591 591" fill="none" xmlns="http://www.w3.org/2000/svg">
<path d="M348.553 70.5003C51.1471 241.423 9.05424 77.3561 94.0542 254.856C179.054 432.356 -71.9469 583.356 168.553 404.356C409.053 225.356 534.053 495.404 348.553 377.404C163.053 259.404 243.553 96.8561 168.553 254.856C88.9945 422.46 217.054 384.356 328.054 379.356C439.054 374.356 483.498 577 479.998 493.5C476.498 410 638.55 130.356 385.05 152.356C131.55 174.356 181 -20.1439 143 152.356C105 324.856 -109.946 268.356 117.554 298.356C345.054 328.356 350.556 292.356 358.055 212.356C365.554 132.356 519.497 75.5002 459.498 195C347.138 418.789 531.555 525 406.055 493.5C280.555 462 316.555 618.356 183.055 477.356C49.5549 336.356 41.3373 278.559 69.4985 415.5C94.9985 539.5 49.5537 623.856 207.554 477.356C365.554 330.856 597.553 336.356 402.553 223.856C207.554 111.356 128.555 338.856 183.055 426.356C237.555 513.856 448.053 610.5 500.054 527C552.055 443.5 563.055 117.856 500.054 96.8561C449.653 80.0561 392.053 45.5003 348.553 70.5003Z" stroke="#8B8B8B" stroke-width="10"/>
</svg>
